<?xml version="1.0" standalone="no"?>
<!DOCTYPE svg PUBLIC "-//W3C//DTD SVG 20010904//EN"
 "http://www.w3.org/TR/2001/REC-SVG-20010904/DTD/svg10.dtd">
<svg version="1.0" xmlns="http://www.w3.org/2000/svg"
 width="1200.000000pt" height="630.000000pt" viewBox="0 0 1200.000000 630.000000"
 preserveAspectRatio="xMidYMid meet">

<g transform="translate(0.000000,630.000000) scale(0.100000,-0.100000)"
fill="#000000" stroke="none">
<path d="M2781 5049 c-164 -28 -347 -151 -447 -301 -85 -128 -120 -236 -134
-421 -8 -101 -12 -114 -59 -211 -28 -56 -62 -143 -77 -192 -24 -80 -27 -109
-32 -291 l-4 -203 -82 -132 c-45 -73 -104 -167 -130 -209 -52 -84 -65 -133
-46 -179 16 -39 48 -56 133 -70 36 -7 72 -19 79 -27 8 -10 13 -47 13 -99 1
-71 5 -89 24 -115 18 -24 21 -38 17 -64 -5 -23 1 -53 19 -100 20 -53 25 -86
25 -154 0 -75 4 -95 28 -142 22 -45 36 -59 80 -81 74 -37 148 -42 350 -24 95
9 177 16 182 16 21 0 41 -54 66 -176 14 -71 31 -139 39 -150 20 -31 50 -32
256 -13 293 27 961 100 994 108 28 7 30 10 29 57 -1 27 -18 157 -38 289 -46
295 -56 448 -33 525 9 30 53 125 97 210 132 253 166 331 225 512 88 268 95
315 95 671 0 319 -6 380 -45 506 -67 211 -264 396 -481 451 -72 19 -110 20
-583 19 -278 -1 -530 -5 -560 -10z m1126 -200 c166 -62 278 -188 323 -365 18
-69 20 -111 20 -383 0 -334 -5 -377 -58 -475 -34 -65 -118 -149 -210 -209
l-72 -47 0 -150 c0 -82 -4 -160 -10 -174 -19 -52 -43 -39 -283 162 -83 68
-165 131 -183 138 -26 11 -98 14 -312 14 -214 0 -291 3 -335 15 -193 50 -331
195 -372 390 -20 94 -20 556 -1 666 30 167 125 298 277 383 94 53 114 55 656
55 490 1 504 0 560 -20z"/>
<path d="M3220 4666 c-72 -20 -118 -46 -174 -97 -71 -65 -109 -144 -110 -229
l-1 -65 114 0 114 0 12 53 c20 85 79 132 167 132 85 0 153 -69 145 -147 -6
-59 -24 -82 -119 -155 -46 -34 -89 -69 -96 -78 -32 -39 -52 -94 -58 -159 l-7
-71 122 0 121 0 0 28 c0 47 33 94 110 157 134 109 177 194 168 324 -11 148
-115 265 -273 307 -61 17 -175 16 -235 0z"/>
<path d="M3249 3727 c-48 -32 -65 -83 -48 -139 34 -105 181 -120 239 -25 24
39 25 78 4 123 -31 65 -129 86 -195 41z"/>
<path d="M4934 3762 c-187 -67 -298 -228 -311 -452 -9 -170 34 -303 134 -410
82 -89 158 -122 288 -128 83 -3 110 -1 162 17 34 11 68 18 75 15 7 -3 36 -32
63 -64 74 -87 74 -87 146 6 l42 55 -61 62 -61 62 33 55 c51 86 68 145 73 257
7 127 -7 204 -54 297 -45 89 -119 163 -207 206 -63 31 -79 35 -170 38 -78 2
-113 -2 -152 -16z m235 -201 c47 -25 97 -81 125 -140 17 -38 21 -65 21 -151 0
-92 -3 -111 -25 -155 -14 -27 -29 -50 -35 -52 -5 -1 -28 22 -49 52 -22 30 -42
55 -45 55 -10 -1 -36 -24 -59 -54 -29 -38 -28 -74 3 -117 l26 -34 -48 -3
c-133 -9 -227 82 -255 248 -25 146 37 295 147 353 44 23 146 22 194 -2z"/>
<path d="M6335 3768 c-37 -20 -55 -51 -55 -98 0 -71 43 -110 119 -110 31 0 49
7 73 29 29 26 33 35 33 81 0 46 -4 55 -33 81 -25 23 -42 29 -75 29 -23 0 -51
-6 -62 -12z"/>
<path d="M7495 3763 c-201 -72 -315 -250 -315 -493 0 -217 94 -386 256 -462
86 -40 226 -50 319 -23 206 60 329 257 320 515 -8 213 -107 374 -280 452 -69
31 -228 36 -300 11z m240 -205 c105 -56 165 -219 135 -370 -28 -146 -115 -228
-241 -228 -150 0 -249 123 -249 310 0 209 116 335 285 310 22 -4 54 -14 70
-22z"/>
<path d="M9475 3768 c-37 -20 -55 -51 -55 -99 0 -25 6 -52 13 -61 41 -50 107
-62 163 -27 63 39 65 139 3 183 -27 18 -94 21 -124 4z"/>
<path d="M8330 3475 c-91 -29 -159 -114 -160 -197 l0 -38 75 0 75 0 14 34 c19
45 52 66 104 66 60 0 102 -41 102 -99 l0 -41 -54 0 c-68 0 -195 -24 -233 -44
-42 -22 -89 -76 -103 -120 -18 -55 -7 -140 23 -186 31 -46 85 -72 159 -78 81
-6 119 3 171 43 l46 35 3 -33 3 -32 83 -3 82 -3 0 257 c0 166 -4 270 -12 295
-16 54 -69 113 -120 134 -59 24 -199 29 -258 10z m205 -449 c-1 -51 -4 -61
-28 -82 -54 -46 -148 -42 -176 8 -19 33 -7 73 30 100 26 19 103 37 149 35 24
-2 25 -5 25 -61z"/>
<path d="M8966 3470 c-92 -36 -146 -108 -146 -194 0 -56 14 -93 48 -129 37
-39 67 -53 173 -82 113 -30 139 -46 139 -85 0 -86 -156 -95 -199 -11 l-19 36
-81 -3 c-78 -3 -81 -4 -81 -28 0 -39 40 -113 76 -140 75 -58 215 -82 316 -54
48 14 117 66 141 107 24 41 33 130 18 176 -24 72 -84 111 -226 146 -98 24
-125 41 -125 78 0 81 149 83 175 3 5 -17 15 -20 63 -20 79 0 102 8 102 34 -1
35 -35 100 -69 129 -67 56 -211 74 -305 37z"/>
<path d="M9870 3475 c-56 -18 -112 -63 -134 -110 -22 -45 -22 -133 -2 -173 24
-47 82 -90 141 -107 30 -8 79 -22 108 -30 71 -20 97 -40 97 -75 0 -88 -163
-93 -204 -6 -15 32 -17 33 -68 29 -112 -8 -119 -11 -112 -41 31 -127 146 -199
308 -190 66 3 91 10 135 34 128 69 158 229 62 325 -28 28 -55 42 -111 58 -185
52 -185 52 -188 92 -4 44 13 60 71 66 48 6 93 -21 99 -60 3 -24 2 -24 111 -12
48 5 57 10 57 26 0 31 -29 91 -57 121 -58 61 -206 86 -313 53z"/>
<path d="M5607 3268 c-9 -303 5 -382 79 -447 39 -35 89 -51 157 -51 55 0 99
16 143 53 l32 27 6 -35 7 -36 87 3 87 3 3 348 2 347 -95 0 -95 0 0 -226 c0
-245 -4 -267 -58 -296 -30 -15 -90 -15 -121 1 -44 24 -51 64 -51 301 l0 220
-88 0 -89 0 -6 -212z"/>
<path d="M6300 3130 l0 -350 95 0 95 0 0 350 0 350 -95 0 -95 0 0 -350z"/>
<path d="M6590 3400 l0 -80 141 0 c84 0 139 -4 137 -10 -1 -5 -65 -90 -140
-189 l-138 -179 0 -81 0 -81 268 2 267 3 0 80 0 80 -154 5 -154 5 95 120 c213
272 198 246 198 331 l0 74 -260 0 -260 0 0 -80z"/>
<path d="M9430 3130 l0 -351 93 3 92 3 3 348 2 347 -95 0 -95 0 0 -350z"/>
</g>
</svg>
